<?xml version="1.0" encoding="utf-8"?>
<!-- Generator: Adobe Illustrator 15.0.2, SVG Export Plug-In . SVG Version: 6.00 Build 0)  -->
<!DOCTYPE svg PUBLIC "-//W3C//DTD SVG 1.1//EN" "http://www.w3.org/Graphics/SVG/1.1/DTD/svg11.dtd">
<svg version="1.1" id="Layer_1" xmlns="http://www.w3.org/2000/svg" xmlns:xlink="http://www.w3.org/1999/xlink" x="0px" y="0px"
	 width="613.777px" height="109.778px" viewBox="0 0 613.777 109.778" enable-background="new 0 0 613.777 109.778"
	 xml:space="preserve">
<g>
	<g>
		<g>
			<path fill="#220C0C" d="M41.866,35.093c5.069-5.068,12.073-8.203,19.811-8.203c7.717,0,14.705,3.121,19.77,8.166L81.467,16.4
				c-5.93-3.055-12.661-4.779-19.791-4.779c-7.133,0-13.899,1.941-19.833,4.998L41.866,35.093z"/>
			<path fill="#220C0C" d="M81.467,74.685c-5.068,5.068-12.07,8.203-19.808,8.203c-7.717,0-14.705-3.119-19.773-8.166l-0.021,18.656
				c5.934,3.055,12.662,4.779,19.794,4.779c7.133,0,13.863-1.725,19.794-4.779L81.467,74.685z"/>
			<path fill="#220C0C" d="M41.903,74.708c-5.068-5.068-8.205-12.068-8.205-19.807c0-7.719,3.121-14.705,8.167-19.773l-18.657-0.02
				c-3.054,5.932-4.779,12.66-4.779,19.793s1.725,13.863,4.782,19.793L41.903,74.708z"/>
			<path fill="#220C0C" d="M81.457,35.054c5.069,5.068,8.205,12.074,8.205,19.812c0,7.717-3.121,14.703-8.167,19.77l18.657,0.02
				c3.055-5.93,4.779-12.66,4.779-19.789c0-7.135-1.725-13.865-4.781-19.799L81.457,35.054z"/>
		</g>
		<path fill="#220C0C" d="M123.387,54.892c0-11.555,8.37-20.084,19.98-20.084c11.608,0,19.98,8.529,19.98,20.084
			c0,11.557-8.372,20.09-19.98,20.09C131.756,74.982,123.387,66.449,123.387,54.892z M158.486,54.892
			c0-8.803-6.156-15.875-15.119-15.875c-8.965,0-15.119,7.072-15.119,15.875s6.154,15.879,15.119,15.879
			C152.33,70.771,158.486,63.695,158.486,54.892z"/>
		<path fill="#220C0C" d="M168.584,48.154h4.275v3.727h0.111c2.358-2.74,5.483-4.387,9.211-4.387
			c8.063,0,13.491,5.705,13.491,13.492c0,7.678-5.647,13.49-12.832,13.49c-4.608,0-8.283-2.305-9.871-5.211h-0.111v16.688h-4.275
			V48.154z M181.963,70.527c5.541,0,9.106-4.166,9.106-9.541s-3.565-9.543-9.106-9.543s-9.104,4.168-9.104,9.543
			S176.422,70.527,181.963,70.527z"/>
		<path fill="#220C0C" d="M224.136,69.158c-3.02,3.893-6.637,5.318-11.409,5.318c-8.061,0-12.995-6.031-12.995-13.49
			c0-7.951,5.594-13.492,13.162-13.492c7.24,0,12.172,4.938,12.172,13.439v1.369h-20.727c0.327,4.441,3.728,8.225,8.388,8.225
			c3.673,0,6.143-1.314,8.171-3.893L224.136,69.158z M220.46,58.681c-0.164-4.332-3.018-7.238-7.733-7.238
			c-4.714,0-7.839,2.906-8.388,7.238H220.46z"/>
		<path fill="#220C0C" d="M230.606,54.242c0-2.361-0.219-4.387-0.219-6.088h4.057c0,1.371,0.111,2.795,0.111,4.221h0.11
			c1.151-2.52,4.333-4.881,8.553-4.881c6.747,0,9.761,4.279,9.761,10.475v15.848h-4.275V58.41c0-4.279-1.867-6.967-5.869-6.967
			c-5.538,0-7.953,4.004-7.953,9.873v12.5h-4.275V54.242z"/>
		<path fill="#220C0C" d="M262.159,35.779h6.75l12.962,29.969h0.108l13.062-29.969h6.59v38.229h-4.533V41.933h-0.107l-13.719,32.074
			h-2.756l-13.715-32.074h-0.107v32.074h-4.535V35.779z"/>
		<path fill="#220C0C" d="M311.139,35.779h9.772c7.398,0,15.227,1.078,15.227,10.527c0,5.562-3.617,9.182-9.555,10.1l10.852,17.602
			h-5.561l-10.367-17.17h-5.834v17.17h-4.534V35.779z M315.673,52.626h4.049c5.023,0,11.559,0,11.559-6.32
			c0-5.506-4.805-6.314-9.234-6.314h-6.373V52.626z"/>
		<path fill="#220C0C" d="M361.69,42.525c-1.516-2.43-4.213-3.508-6.969-3.508c-3.998,0-8.15,1.891-8.15,6.426
			c0,3.51,1.943,5.078,8.043,7.021c5.941,1.891,11.449,3.834,11.449,11.338c0,7.615-6.535,11.18-13.445,11.18
			c-4.428,0-9.182-1.459-11.773-5.293l3.887-3.186c1.621,2.811,4.861,4.268,8.156,4.268c3.887,0,8.314-2.27,8.314-6.645
			c0-4.697-3.184-5.508-9.99-7.775c-5.398-1.783-9.5-4.16-9.5-10.529c0-7.344,6.316-11.014,13.01-11.014
			c4.268,0,7.885,1.186,10.691,4.479L361.69,42.525z"/>
	</g>
	<g>
		<path fill="#220C0C" d="M404.295,35.53h3.733v16.992h-3.733V35.53z"/>
		<path fill="#220C0C" d="M411.984,35.53h5.648l3.902,11.088h0.047l3.926-11.088h5.625v16.992h-3.734V39.49h-0.048l-4.452,13.032
			h-2.848l-4.285-13.032h-0.047v13.032h-3.734V35.53z"/>
		<path fill="#220C0C" d="M435.119,35.53h6.296c0.877,0,1.707,0.081,2.489,0.24c0.781,0.16,1.464,0.436,2.046,0.828
			s1.045,0.92,1.389,1.584c0.343,0.664,0.515,1.5,0.515,2.508c0,0.992-0.16,1.824-0.479,2.496s-0.758,1.208-1.316,1.608
			c-0.559,0.4-1.221,0.684-1.986,0.852s-1.596,0.252-2.489,0.252h-2.729v6.624h-3.734V35.53z M438.854,42.73h2.489
			c0.335,0,0.658-0.032,0.97-0.096c0.311-0.063,0.59-0.171,0.838-0.324c0.247-0.152,0.446-0.36,0.598-0.624s0.228-0.596,0.228-0.996
			c0-0.432-0.1-0.78-0.299-1.044c-0.2-0.264-0.455-0.468-0.767-0.612c-0.311-0.144-0.658-0.236-1.041-0.276
			c-0.383-0.04-0.75-0.06-1.101-0.06h-1.915V42.73z"/>
		<path fill="#220C0C" d="M450.414,35.53h3.733v13.536h6.917v3.456h-10.65V35.53z"/>
		<path fill="#220C0C" d="M463.473,35.53h11.513v3.456h-7.779v3.168h7.349v3.456h-7.349v3.456h8.21v3.456h-11.943V35.53z"/>
		<path fill="#220C0C" d="M478.894,35.53h5.648l3.901,11.088h0.048l3.925-11.088h5.625v16.992h-3.733V39.49h-0.048l-4.452,13.032
			h-2.849l-4.284-13.032h-0.048v13.032h-3.733V35.53z"/>
		<path fill="#220C0C" d="M502.101,35.53h11.513v3.456h-7.779v3.168h7.349v3.456h-7.349v3.456h8.21v3.456h-11.943V35.53z"/>
		<path fill="#220C0C" d="M517.521,35.53h5.074l7.204,11.808h0.048V35.53h3.733v16.992h-4.882l-7.396-12.096h-0.048v12.096h-3.733
			V35.53z"/>
		<path fill="#220C0C" d="M540.673,38.842h-4.834V35.53h13.403v3.312h-4.835v13.68h-3.734V38.842z"/>
		<path fill="#220C0C" d="M551.581,35.53h11.513v3.456h-7.779v3.168h7.349v3.456h-7.349v3.456h8.21v3.456h-11.943V35.53z"/>
		<path fill="#220C0C" d="M567.002,35.53h6.558c0.862,0,1.68,0.084,2.453,0.252c0.774,0.168,1.452,0.448,2.035,0.84
			c0.582,0.392,1.045,0.92,1.388,1.584s0.515,1.492,0.515,2.484c0,1.2-0.311,2.22-0.934,3.06c-0.622,0.84-1.531,1.372-2.729,1.596
			l4.309,7.176h-4.476l-3.543-6.792h-1.843v6.792h-3.733V35.53z M570.735,42.562h2.202c0.335,0,0.69-0.012,1.065-0.036
			c0.374-0.024,0.714-0.096,1.017-0.216c0.304-0.12,0.555-0.308,0.754-0.564s0.3-0.616,0.3-1.08c0-0.432-0.088-0.776-0.264-1.032
			c-0.176-0.255-0.398-0.452-0.67-0.588c-0.271-0.136-0.583-0.228-0.934-0.276c-0.352-0.048-0.694-0.072-1.029-0.072h-2.441V42.562z
			"/>
		<path fill="#220C0C" d="M591.511,39.682c-0.304-0.384-0.714-0.668-1.232-0.852s-1.01-0.276-1.473-0.276
			c-0.271,0-0.55,0.032-0.837,0.096c-0.288,0.064-0.56,0.165-0.814,0.3s-0.463,0.316-0.622,0.54
			c-0.16,0.225-0.239,0.497-0.239,0.816c0,0.512,0.191,0.904,0.574,1.176c0.383,0.272,0.865,0.504,1.448,0.696
			c0.582,0.192,1.209,0.384,1.879,0.576s1.296,0.464,1.879,0.816c0.582,0.352,1.065,0.824,1.448,1.416
			c0.383,0.592,0.574,1.384,0.574,2.376c0,0.944-0.176,1.768-0.526,2.472c-0.352,0.704-0.826,1.288-1.425,1.752
			c-0.598,0.464-1.292,0.808-2.082,1.032c-0.79,0.224-1.624,0.336-2.501,0.336c-1.102,0-2.122-0.168-3.063-0.504
			c-0.942-0.336-1.819-0.88-2.633-1.632l2.656-2.928c0.383,0.512,0.865,0.908,1.448,1.188c0.582,0.28,1.185,0.42,1.807,0.42
			c0.304,0,0.61-0.036,0.922-0.108c0.312-0.072,0.59-0.18,0.838-0.324c0.247-0.144,0.446-0.328,0.599-0.552
			c0.151-0.224,0.228-0.488,0.228-0.792c0-0.512-0.196-0.916-0.587-1.212c-0.392-0.296-0.882-0.548-1.472-0.756
			c-0.591-0.208-1.229-0.416-1.915-0.624c-0.687-0.208-1.324-0.488-1.915-0.84c-0.59-0.352-1.081-0.816-1.472-1.392
			c-0.392-0.576-0.587-1.336-0.587-2.28c0-0.912,0.18-1.712,0.539-2.4c0.358-0.688,0.838-1.264,1.436-1.728
			c0.599-0.464,1.289-0.812,2.07-1.044c0.782-0.231,1.588-0.348,2.418-0.348c0.957,0,1.883,0.136,2.776,0.408
			c0.894,0.272,1.699,0.729,2.417,1.368L591.511,39.682z"/>
		<path fill="#220C0C" d="M404.342,56.53h5.649l3.901,11.088h0.048l3.925-11.088h5.625v16.992h-3.734V60.49h-0.047l-4.452,13.032
			h-2.849l-4.284-13.032h-0.048v13.032h-3.734V56.53z"/>
		<path fill="#220C0C" d="M427.549,56.53h11.514v3.456h-7.779v3.168h7.349v3.456h-7.349v3.456h8.21v3.456h-11.944V56.53z"/>
		<path fill="#220C0C" d="M443.043,56.53h11.513v3.456h-7.779v3.168h7.349v3.456h-7.349v3.456h8.21v3.456h-11.943V56.53z"/>
		<path fill="#220C0C" d="M461.634,59.842H456.8V56.53h13.403v3.312h-4.835v13.68h-3.734V59.842z"/>
		<path fill="#220C0C" d="M472.448,56.53h3.733v16.992h-3.733V56.53z"/>
		<path fill="#220C0C" d="M480.139,56.53h5.074l7.204,11.809h0.048V56.53h3.733v16.992h-4.882l-7.396-12.096h-0.048v12.096h-3.733
			V56.53z"/>
		<path fill="#220C0C" d="M515.492,72.322c-1.101,0.576-2.25,0.992-3.446,1.248c-1.197,0.256-2.418,0.384-3.662,0.384
			c-1.325,0-2.546-0.208-3.662-0.624c-1.117-0.415-2.082-1.012-2.896-1.788c-0.813-0.775-1.447-1.716-1.902-2.819
			c-0.455-1.104-0.683-2.336-0.683-3.696c0-1.359,0.228-2.592,0.683-3.695c0.455-1.104,1.089-2.045,1.902-2.82
			c0.814-0.776,1.779-1.372,2.896-1.788c1.116-0.416,2.337-0.624,3.662-0.624c1.356,0,2.604,0.164,3.746,0.492
			c1.141,0.328,2.142,0.892,3.004,1.691l-2.633,2.881c-0.512-0.529-1.086-0.928-1.724-1.201c-0.639-0.271-1.437-0.407-2.394-0.407
			c-0.798,0-1.52,0.136-2.166,0.407c-0.646,0.273-1.201,0.652-1.664,1.141s-0.817,1.068-1.064,1.74
			c-0.248,0.672-0.371,1.4-0.371,2.184c0,0.801,0.123,1.532,0.371,2.196c0.247,0.664,0.602,1.239,1.064,1.728
			s1.018,0.868,1.664,1.141c0.646,0.271,1.368,0.407,2.166,0.407c0.813,0,1.516-0.092,2.106-0.275
			c0.59-0.184,1.061-0.372,1.412-0.564v-2.76h-3.04v-3.456h6.63V72.322z"/>
		<path fill="#220C0C" d="M524.515,71.218l6.391-6.24c0.399-0.384,0.75-0.739,1.054-1.067c0.303-0.328,0.554-0.648,0.754-0.961
			c0.199-0.312,0.347-0.636,0.442-0.972s0.144-0.712,0.144-1.128c0-0.447-0.08-0.848-0.239-1.2
			c-0.159-0.352-0.379-0.651-0.658-0.899s-0.606-0.44-0.981-0.576c-0.375-0.137-0.777-0.204-1.208-0.204
			c-0.862,0-1.572,0.248-2.131,0.743c-0.559,0.496-0.917,1.152-1.077,1.969l-2.178-0.192c0.111-0.688,0.323-1.3,0.635-1.836
			c0.311-0.536,0.701-0.979,1.173-1.332c0.47-0.352,1.001-0.62,1.591-0.804c0.591-0.184,1.229-0.275,1.915-0.275
			c0.702,0,1.364,0.1,1.986,0.299c0.623,0.201,1.169,0.492,1.64,0.877c0.471,0.383,0.846,0.863,1.125,1.439s0.419,1.24,0.419,1.992
			c0,0.672-0.092,1.28-0.275,1.824s-0.431,1.043-0.741,1.5c-0.312,0.455-0.663,0.888-1.054,1.296
			c-0.391,0.407-0.802,0.812-1.232,1.212l-5.218,4.92v0.048h8.641v1.872h-10.915V71.218z"/>
		<path fill="#220C0C" d="M537.962,65.026c0-0.96,0.08-1.959,0.239-3c0.16-1.039,0.455-1.988,0.886-2.844s1.018-1.561,1.76-2.112
			s1.695-0.827,2.86-0.827c1.164,0,2.118,0.275,2.859,0.827c0.742,0.552,1.329,1.257,1.76,2.112s0.726,1.805,0.886,2.844
			c0.159,1.041,0.239,2.04,0.239,3s-0.08,1.961-0.239,3c-0.16,1.04-0.455,1.988-0.886,2.844c-0.431,0.856-1.018,1.561-1.76,2.112
			c-0.741,0.552-1.695,0.828-2.859,0.828c-1.165,0-2.118-0.276-2.86-0.828s-1.329-1.256-1.76-2.112
			c-0.431-0.855-0.726-1.804-0.886-2.844C538.042,66.987,537.962,65.986,537.962,65.026z M539.973,65.026
			c0,0.416,0.016,0.881,0.048,1.393s0.092,1.027,0.18,1.547c0.088,0.521,0.216,1.029,0.383,1.524c0.168,0.496,0.391,0.937,0.67,1.32
			s0.618,0.692,1.018,0.924c0.398,0.232,0.877,0.348,1.437,0.348c0.558,0,1.037-0.115,1.436-0.348
			c0.398-0.231,0.738-0.54,1.018-0.924s0.503-0.824,0.67-1.32c0.168-0.495,0.295-1.003,0.383-1.524
			c0.088-0.52,0.147-1.035,0.18-1.547s0.048-0.977,0.048-1.393s-0.016-0.88-0.048-1.393c-0.032-0.512-0.092-1.027-0.18-1.547
			s-0.215-1.028-0.383-1.524c-0.167-0.495-0.391-0.937-0.67-1.319c-0.279-0.385-0.619-0.692-1.018-0.925
			c-0.398-0.231-0.878-0.348-1.436-0.348c-0.56,0-1.038,0.116-1.437,0.348c-0.399,0.232-0.738,0.54-1.018,0.925
			c-0.279,0.383-0.502,0.824-0.67,1.319c-0.167,0.496-0.295,1.005-0.383,1.524s-0.147,1.035-0.18,1.547
			C539.988,64.146,539.973,64.61,539.973,65.026z"/>
		<path fill="#220C0C" d="M558.685,73.522h-2.01v-14.4h-0.048l-3.04,2.568l-1.197-1.464l4.548-3.696h1.747V73.522z"/>
		<path fill="#220C0C" d="M567.12,63.73h0.622c0.415,0,0.85-0.032,1.305-0.097c0.455-0.062,0.869-0.199,1.244-0.407
			s0.687-0.508,0.934-0.899c0.247-0.393,0.371-0.908,0.371-1.549c0-0.863-0.268-1.548-0.802-2.052
			c-0.535-0.504-1.232-0.756-2.094-0.756c-0.719,0-1.341,0.159-1.867,0.479s-0.941,0.793-1.245,1.416l-1.938-0.744
			c0.415-0.959,1.065-1.68,1.951-2.16c0.885-0.479,1.87-0.719,2.955-0.719c0.671,0,1.312,0.096,1.927,0.287
			c0.614,0.192,1.153,0.473,1.616,0.84c0.463,0.369,0.829,0.828,1.101,1.381c0.271,0.551,0.407,1.195,0.407,1.932
			c0,0.896-0.268,1.7-0.802,2.412c-0.535,0.712-1.232,1.204-2.095,1.476v0.048c0.543,0.096,1.025,0.272,1.448,0.528
			s0.786,0.572,1.089,0.948c0.304,0.376,0.535,0.804,0.694,1.283c0.159,0.48,0.239,0.984,0.239,1.513
			c0,0.815-0.151,1.528-0.454,2.136c-0.304,0.608-0.711,1.12-1.221,1.536c-0.512,0.416-1.105,0.729-1.783,0.936
			c-0.679,0.208-1.393,0.312-2.143,0.312c-1.293,0-2.417-0.28-3.375-0.84c-0.957-0.561-1.651-1.472-2.082-2.736l2.034-0.672
			c0.287,0.912,0.694,1.56,1.221,1.944c0.526,0.384,1.261,0.575,2.202,0.575c0.479,0,0.925-0.079,1.341-0.239
			c0.414-0.16,0.777-0.388,1.089-0.685c0.311-0.296,0.558-0.647,0.741-1.056s0.275-0.86,0.275-1.356
			c0-0.624-0.123-1.147-0.371-1.571c-0.247-0.424-0.574-0.76-0.98-1.008c-0.407-0.248-0.866-0.428-1.377-0.541
			c-0.511-0.111-1.029-0.168-1.556-0.168h-0.622V63.73z"/>
	</g>
	<g>
		<rect x="386.062" y="23.357" fill="none" stroke="#000000" stroke-width="0.5" width="1" height="63.064"/>
		<line fill="none" stroke="#000000" stroke-width="0.5" x1="387.062" y1="75.921" x2="386.062" y2="75.921"/>
		<line fill="none" stroke="#000000" stroke-width="0.5" x1="387.062" y1="65.389" x2="386.062" y2="65.389"/>
		<line fill="none" stroke="#000000" stroke-width="0.5" x1="387.062" y1="54.889" x2="386.062" y2="54.889"/>
		<line fill="none" stroke="#000000" stroke-width="0.5" x1="387.062" y1="44.388" x2="386.062" y2="44.388"/>
		<line fill="none" stroke="#000000" stroke-width="0.5" x1="387.062" y1="33.857" x2="386.062" y2="33.857"/>
		<line fill="none" stroke="#000000" stroke-width="0.5" x1="386.229" y1="23.357" x2="386.229" y2="86.421"/>
		<line fill="none" stroke="#000000" stroke-width="0.5" x1="386.396" y1="23.357" x2="386.396" y2="86.421"/>
		<line fill="none" stroke="#000000" stroke-width="0.5" x1="386.562" y1="23.357" x2="386.562" y2="86.421"/>
		<line fill="none" stroke="#000000" stroke-width="0.5" x1="386.729" y1="23.357" x2="386.729" y2="86.421"/>
		<line fill="none" stroke="#000000" stroke-width="0.5" x1="386.896" y1="23.357" x2="386.896" y2="86.421"/>
	</g>
</g>
</svg>
