<?xml version="1.0" encoding="utf-8"?>
<!-- Generator: Adobe Illustrator 16.0.4, SVG Export Plug-In . SVG Version: 6.00 Build 0)  -->
<!DOCTYPE svg PUBLIC "-//W3C//DTD SVG 1.1//EN" "http://www.w3.org/Graphics/SVG/1.1/DTD/svg11.dtd">
<svg version="1.1" id="Layer_1" xmlns="http://www.w3.org/2000/svg" xmlns:xlink="http://www.w3.org/1999/xlink" x="0px" y="0px"
	 width="624.511px" height="91.429px" viewBox="0 0 624.511 91.429" enable-background="new 0 0 624.511 91.429"
	 xml:space="preserve">
<g>
	<path fill="#FDF9CC" d="M231.485,39.499c-3.856-4.92-6.327-8.552-7.414-10.896c-1.087-2.344-1.63-4.564-1.63-6.662
		c0-3.619,1.497-6.785,4.491-9.5c2.994-2.714,7.26-4.071,12.797-4.071c5.126,0,9.095,1.316,11.905,3.946
		c2.809,2.63,4.214,5.897,4.214,9.801c0,3.699-0.944,6.782-2.83,9.248c-1.887,2.467-5.004,4.666-9.352,6.597
		c1.435,2.007,3.732,4.792,6.891,8.354c1.066,1.188,1.866,2.129,2.399,2.826l10.521,13.085c3.486-3.931,6.06-7.504,7.721-10.718
		c1.661-3.215,2.492-5.682,2.492-7.403c0-1.187-0.38-2.211-1.138-3.07c-0.759-0.859-2.061-1.535-3.907-2.027
		c-0.165-0.41-0.246-0.717-0.246-0.923l0.123-0.554l7.075-0.677c1.435-0.205,3.465-0.348,6.091-0.431
		c2.625-0.082,6.275-0.308,10.951-0.677l0.123,0.738c0,0.246-0.083,0.595-0.246,1.046c-2.872,1.229-5.322,2.632-7.352,4.208
		s-5.106,4.771-9.229,9.583c-4.122,4.812-7.66,9.245-10.613,13.299c5.208,6.222,8.869,10.039,10.982,11.454
		c2.112,1.415,4.378,2.122,6.798,2.122c2.666,0,4.983-0.799,6.952-2.398c1.312-1.025,2.255-1.539,2.83-1.539
		c0.205,0,0.554,0.083,1.046,0.246c-0.903,3.856-1.744,6.092-2.522,6.707c-3.118,2.584-6.542,3.875-10.274,3.875
		c-2.297,0-4.44-0.359-6.429-1.076c-1.99-0.719-4.051-1.835-6.183-3.354c-1.23-0.901-3.302-2.768-6.214-5.598
		c-1.846-1.801-3.056-2.945-3.63-3.436c-3.282,3.278-5.722,5.512-7.321,6.701c-2.83,2.09-5.917,3.73-9.259,4.918
		c-3.343,1.188-7.167,1.783-11.474,1.783c-5.291,0-9.69-1.107-13.197-3.318s-6.05-5.079-7.629-8.602
		c-1.58-3.523-2.369-6.883-2.369-10.078c0-2.457,0.451-4.822,1.354-7.096c0.902-2.273,2.092-4.219,3.568-5.838
		c1.477-1.618,3.465-3.287,5.968-5.007c0.861-0.573,2.973-1.699,6.337-3.38C226.748,40.687,229.024,39.95,231.485,39.499z
		 M257.017,69.354l-0.492-0.676l-0.185-0.246l-13.72-16.34c-1.682-2.088-4.799-5.63-9.352-10.627
		c-5.127,1.925-9.013,4.669-11.659,8.232c-2.646,3.562-3.968,7.331-3.968,11.303c0,1.105,0.338,2.662,1.015,4.668
		c0.677,2.007,1.896,3.963,3.661,5.867c1.763,1.904,3.999,3.389,6.706,4.454c2.707,1.064,5.803,1.596,9.29,1.596
		c4.019,0,7.66-0.787,10.92-2.364S255.089,71.688,257.017,69.354z M241.39,35.626c2.296-0.984,4.101-2.646,5.414-4.983
		c1.312-2.338,1.969-4.819,1.969-7.444c0-3.896-0.903-6.88-2.707-8.952c-1.805-2.071-4.102-3.107-6.891-3.107
		c-2.502,0-4.533,0.749-6.091,2.246c-1.559,1.498-2.338,3.292-2.338,5.383c0,2.174,0.82,4.553,2.461,7.137
		C235.545,29.515,238.272,32.755,241.39,35.626z"/>
</g>
<g>
	<path fill="#B19430" d="M4.32,34.827h16.44c2.16,0,4.209,0.21,6.15,0.63c1.939,0.42,3.639,1.121,5.1,2.1
		c1.46,0.98,2.62,2.301,3.48,3.96c0.859,1.66,1.29,3.73,1.29,6.21c0,3-0.78,5.55-2.34,7.65c-1.56,2.101-3.84,3.431-6.84,3.99
		l10.8,17.94H27.18l-8.88-16.98h-4.62v16.98H4.32V34.827z M13.68,52.407h5.52c0.84,0,1.729-0.03,2.67-0.09
		c0.939-0.061,1.79-0.24,2.55-0.54c0.759-0.3,1.39-0.771,1.89-1.41c0.5-0.64,0.75-1.54,0.75-2.7c0-1.08-0.22-1.939-0.66-2.58
		c-0.44-0.639-1-1.129-1.68-1.47c-0.681-0.339-1.461-0.57-2.34-0.69c-0.88-0.12-1.74-0.18-2.58-0.18h-6.12V52.407z"/>
	<path fill="#B19430" d="M39.738,56.067c0-3.399,0.57-6.48,1.71-9.24c1.14-2.76,2.73-5.109,4.77-7.05
		c2.04-1.94,4.459-3.43,7.26-4.47c2.8-1.04,5.859-1.56,9.18-1.56c3.32,0,6.38,0.521,9.18,1.56c2.799,1.041,5.22,2.53,7.26,4.47
		c2.04,1.94,3.63,4.29,4.77,7.05c1.14,2.76,1.71,5.841,1.71,9.24c0,3.4-0.57,6.48-1.71,9.24s-2.73,5.109-4.77,7.049
		c-2.04,1.941-4.46,3.432-7.26,4.471c-2.8,1.039-5.86,1.561-9.18,1.561c-3.321,0-6.38-0.521-9.18-1.561
		c-2.8-1.039-5.22-2.529-7.26-4.471c-2.04-1.939-3.63-4.289-4.77-7.049S39.738,59.467,39.738,56.067z M49.458,56.067
		c0,2,0.31,3.83,0.93,5.49c0.62,1.66,1.509,3.1,2.67,4.319c1.16,1.221,2.55,2.171,4.17,2.851c1.62,0.68,3.43,1.02,5.43,1.02
		c2,0,3.81-0.34,5.43-1.02c1.62-0.68,3.009-1.63,4.17-2.851c1.16-1.22,2.049-2.659,2.67-4.319c0.62-1.66,0.93-3.49,0.93-5.49
		c0-1.959-0.311-3.78-0.93-5.461c-0.621-1.679-1.51-3.129-2.67-4.349c-1.161-1.22-2.55-2.169-4.17-2.85
		c-1.62-0.68-3.431-1.02-5.43-1.02c-2,0-3.81,0.34-5.43,1.02c-1.62,0.681-3.01,1.63-4.17,2.85c-1.161,1.22-2.05,2.67-2.67,4.349
		C49.767,52.287,49.458,54.108,49.458,56.067z"/>
	<path fill="#B19430" d="M88.829,56.067c0-3.399,0.57-6.48,1.71-9.24c1.14-2.76,2.73-5.109,4.77-7.05
		c2.04-1.94,4.459-3.43,7.26-4.47c2.8-1.04,5.859-1.56,9.18-1.56c3.32,0,6.38,0.521,9.18,1.56c2.799,1.041,5.22,2.53,7.26,4.47
		c2.04,1.94,3.63,4.29,4.77,7.05c1.14,2.76,1.71,5.841,1.71,9.24c0,3.4-0.57,6.48-1.71,9.24s-2.73,5.109-4.77,7.049
		c-2.04,1.941-4.46,3.432-7.26,4.471c-2.8,1.039-5.86,1.561-9.18,1.561c-3.321,0-6.38-0.521-9.18-1.561
		c-2.8-1.039-5.22-2.529-7.26-4.471c-2.04-1.939-3.63-4.289-4.77-7.049S88.829,59.467,88.829,56.067z M98.549,56.067
		c0,2,0.31,3.83,0.93,5.49c0.62,1.66,1.509,3.1,2.67,4.319c1.16,1.221,2.55,2.171,4.17,2.851c1.62,0.68,3.43,1.02,5.43,1.02
		c2,0,3.81-0.34,5.43-1.02c1.62-0.68,3.009-1.63,4.17-2.851c1.16-1.22,2.049-2.659,2.67-4.319c0.62-1.66,0.93-3.49,0.93-5.49
		c0-1.959-0.311-3.78-0.93-5.461c-0.621-1.679-1.51-3.129-2.67-4.349c-1.161-1.22-2.55-2.169-4.17-2.85
		c-1.62-0.68-3.431-1.02-5.43-1.02c-2,0-3.81,0.34-5.43,1.02c-1.62,0.681-3.01,1.63-4.17,2.85c-1.161,1.22-2.05,2.67-2.67,4.349
		C98.858,52.287,98.549,54.108,98.549,56.067z"/>
	<path fill="#B19430" d="M147.514,43.106h-12.12v-8.28h33.6v8.28h-12.12v34.201h-9.36V43.106z"/>
	<path fill="#B19430" d="M194.265,45.207c-0.76-0.96-1.791-1.669-3.09-2.13c-1.3-0.459-2.53-0.69-3.69-0.69
		c-0.681,0-1.38,0.081-2.1,0.24c-0.72,0.161-1.4,0.411-2.04,0.75c-0.64,0.34-1.161,0.791-1.56,1.35c-0.4,0.561-0.6,1.24-0.6,2.04
		c0,1.281,0.48,2.26,1.44,2.94c0.96,0.681,2.169,1.261,3.63,1.74c1.459,0.479,3.03,0.96,4.71,1.44c1.68,0.479,3.25,1.16,4.71,2.039
		c1.459,0.881,2.67,2.061,3.63,3.541c0.96,1.479,1.44,3.459,1.44,5.939c0,2.36-0.44,4.42-1.32,6.18
		c-0.88,1.761-2.07,3.221-3.57,4.381s-3.24,2.02-5.22,2.58c-1.98,0.559-4.071,0.84-6.27,0.84c-2.76,0-5.32-0.42-7.68-1.261
		c-2.361-0.84-4.56-2.199-6.6-4.079l6.66-7.32c0.96,1.28,2.169,2.27,3.63,2.97c1.459,0.7,2.97,1.05,4.53,1.05
		c0.759,0,1.53-0.09,2.31-0.27s1.479-0.45,2.1-0.811c0.62-0.359,1.119-0.819,1.5-1.38c0.379-0.56,0.57-1.22,0.57-1.979
		c0-1.28-0.49-2.29-1.47-3.03c-0.981-0.739-2.211-1.37-3.69-1.89c-1.48-0.52-3.081-1.04-4.8-1.561c-1.72-0.52-3.321-1.22-4.8-2.1
		c-1.48-0.88-2.71-2.041-3.69-3.48c-0.981-1.439-1.47-3.34-1.47-5.7c0-2.28,0.45-4.28,1.35-6c0.9-1.72,2.1-3.16,3.6-4.32
		c1.5-1.16,3.229-2.03,5.19-2.61c1.959-0.58,3.979-0.87,6.06-0.87c2.4,0,4.719,0.34,6.96,1.02c2.24,0.681,4.26,1.821,6.06,3.42
		L194.265,45.207z"/>
	<path fill="#B19430" d="M303.04,34.827h15.841c1.838,0,3.689,0.13,5.549,0.39c1.861,0.26,3.529,0.78,5.009,1.56
		c1.48,0.78,2.68,1.87,3.602,3.27c0.918,1.4,1.379,3.26,1.379,5.58c0,2.4-0.67,4.391-2.01,5.97c-1.34,1.581-3.111,2.711-5.311,3.391
		v0.119c1.4,0.201,2.67,0.592,3.811,1.171c1.141,0.58,2.119,1.319,2.939,2.22s1.449,1.95,1.891,3.15
		c0.439,1.199,0.66,2.48,0.66,3.84c0,2.24-0.48,4.109-1.439,5.609c-0.961,1.5-2.201,2.711-3.721,3.631
		c-1.521,0.92-3.23,1.58-5.131,1.979c-1.9,0.4-3.789,0.601-5.669,0.601H303.04V34.827z M312.4,51.807h6.779
		c0.721,0,1.43-0.08,2.131-0.24c0.699-0.16,1.328-0.42,1.891-0.78c0.559-0.36,1.008-0.84,1.35-1.44c0.338-0.6,0.51-1.319,0.51-2.16
		c0-0.879-0.191-1.609-0.57-2.19c-0.381-0.579-0.869-1.029-1.471-1.35c-0.6-0.319-1.279-0.549-2.039-0.69
		c-0.76-0.14-1.5-0.21-2.221-0.21H312.4V51.807z M312.4,69.387h8.4c0.719,0,1.449-0.08,2.189-0.24s1.41-0.439,2.01-0.84
		c0.599-0.4,1.089-0.92,1.47-1.561c0.379-0.639,0.57-1.42,0.57-2.34c0-1-0.252-1.81-0.75-2.43c-0.502-0.62-1.13-1.09-1.89-1.41
		s-1.58-0.54-2.461-0.66c-0.879-0.12-1.699-0.18-2.459-0.18h-7.08V69.387z"/>
	<path fill="#B19430" d="M341.65,34.827h16.439c2.16,0,4.211,0.21,6.15,0.63s3.641,1.121,5.1,2.1c1.461,0.98,2.619,2.301,3.48,3.96
		c0.859,1.66,1.291,3.73,1.291,6.21c0,3-0.781,5.55-2.34,7.65c-1.561,2.101-3.842,3.431-6.842,3.99l10.801,17.94h-11.221
		l-8.879-16.98h-4.621v16.98h-9.359V34.827z M351.009,52.407h5.521c0.84,0,1.729-0.03,2.67-0.09c0.939-0.061,1.789-0.24,2.549-0.54
		s1.391-0.771,1.891-1.41s0.75-1.54,0.75-2.7c0-1.08-0.221-1.939-0.66-2.58c-0.441-0.639-1-1.129-1.68-1.47
		c-0.682-0.339-1.461-0.57-2.34-0.69c-0.881-0.12-1.74-0.18-2.58-0.18h-6.121V52.407z"/>
	<path fill="#B19430" d="M395.662,34.827h7.74l18.479,42.48h-10.559l-3.66-9h-16.5l-3.541,9h-10.318L395.662,34.827z
		 M399.261,47.187l-5.16,13.201h10.381L399.261,47.187z"/>
	<path fill="#B19430" d="M425.218,34.827h12.719l18.061,29.52h0.119v-29.52h9.361v42.48h-12.24l-18.541-30.241h-0.119v30.241h-9.359
		V34.827z"/>
	<path fill="#B19430" d="M501.05,45.867c-0.92-1.12-2.049-1.98-3.389-2.58c-1.342-0.6-2.891-0.9-4.65-0.9s-3.391,0.34-4.891,1.02
		c-1.5,0.681-2.799,1.63-3.9,2.85c-1.1,1.22-1.959,2.67-2.578,4.349c-0.621,1.681-0.932,3.502-0.932,5.461
		c0,2,0.311,3.83,0.932,5.49c0.619,1.66,1.469,3.1,2.549,4.319c1.08,1.221,2.35,2.171,3.811,2.851c1.459,0.68,3.029,1.02,4.709,1.02
		c1.92,0,3.621-0.399,5.102-1.199c1.479-0.801,2.699-1.921,3.658-3.361l7.801,5.82c-1.801,2.521-4.08,4.381-6.84,5.58
		c-2.76,1.2-5.602,1.801-8.52,1.801c-3.32,0-6.381-0.521-9.18-1.561c-2.801-1.039-5.221-2.529-7.262-4.471
		c-2.039-1.939-3.629-4.289-4.77-7.049c-1.139-2.76-1.709-5.84-1.709-9.24c0-3.399,0.57-6.48,1.709-9.24
		c1.141-2.76,2.73-5.109,4.77-7.05c2.041-1.94,4.461-3.43,7.262-4.47c2.799-1.04,5.859-1.56,9.18-1.56
		c1.199,0,2.449,0.111,3.75,0.33c1.299,0.22,2.58,0.57,3.84,1.05s2.469,1.121,3.629,1.92c1.16,0.8,2.199,1.78,3.121,2.94
		L501.05,45.867z"/>
	<path fill="#B19430" d="M512.992,34.827h9.359v15.84h18.18v-15.84h9.359v42.48h-9.359v-18.36h-18.18v18.36h-9.359V34.827z"/>
	<path fill="#B19430" d="M557.941,34.827h28.861v8.64h-19.5v7.92h18.42v8.64h-18.42v8.64h20.58v8.641h-29.941V34.827z"/>
	<path fill="#B19430" d="M615.392,45.207c-0.762-0.96-1.791-1.669-3.09-2.13c-1.301-0.459-2.531-0.69-3.691-0.69
		c-0.68,0-1.379,0.081-2.1,0.24c-0.721,0.161-1.4,0.411-2.039,0.75c-0.641,0.34-1.162,0.791-1.561,1.35
		c-0.4,0.561-0.6,1.24-0.6,2.04c0,1.281,0.479,2.26,1.439,2.94c0.959,0.681,2.17,1.261,3.629,1.74
		c1.461,0.479,3.031,0.96,4.711,1.44c1.68,0.479,3.25,1.16,4.711,2.039c1.459,0.881,2.67,2.061,3.629,3.541
		c0.961,1.479,1.439,3.459,1.439,5.939c0,2.36-0.439,4.42-1.318,6.18c-0.881,1.761-2.07,3.221-3.57,4.381s-3.24,2.02-5.221,2.58
		c-1.98,0.559-4.07,0.84-6.27,0.84c-2.76,0-5.32-0.42-7.68-1.261c-2.361-0.84-4.561-2.199-6.602-4.079l6.66-7.32
		c0.961,1.28,2.17,2.27,3.631,2.97c1.459,0.7,2.971,1.05,4.529,1.05c0.76,0,1.531-0.09,2.311-0.27s1.479-0.45,2.1-0.811
		c0.619-0.359,1.119-0.819,1.5-1.38c0.381-0.56,0.57-1.22,0.57-1.979c0-1.28-0.49-2.29-1.471-3.03
		c-0.98-0.739-2.209-1.37-3.689-1.89s-3.08-1.04-4.799-1.561c-1.721-0.52-3.322-1.22-4.801-2.1c-1.48-0.88-2.711-2.041-3.689-3.48
		c-0.98-1.439-1.471-3.34-1.471-5.7c0-2.28,0.449-4.28,1.35-6c0.9-1.72,2.1-3.16,3.6-4.32c1.5-1.16,3.23-2.03,5.191-2.61
		c1.959-0.58,3.979-0.87,6.059-0.87c2.4,0,4.721,0.34,6.961,1.02c2.24,0.681,4.26,1.821,6.061,3.42L615.392,45.207z"/>
</g>
<g>
</g>
<g>
</g>
<g>
</g>
<g>
</g>
<g>
</g>
<g>
</g>
</svg>
